<?xml version="1.0" encoding="utf-8"?>
<!DOCTYPE svg PUBLIC "-//W3C//DTD SVG 1.1//EN" "http://www.w3.org/Graphics/SVG/1.1/DTD/svg11.dtd">
<svg  version="1.1" id="Layer_1" xmlns="http://www.w3.org/2000/svg" xmlns:xlink="http://www.w3.org/1999/xlink" width="252" height="252" viewBox="0 0 252 252"
	 overflow="visible" enable-background="new 0 0 252 252" xml:space="preserve">
<rect x="18" y="18" fill="none" stroke="#8B5C29" stroke-width="1.5" width="216" height="216"/>
<line fill="none" stroke="#8B5C29" stroke-width="1.5" x1="90" y1="18" x2="90" y2="234"/>
<line fill="none" stroke="#8B5C29" stroke-width="1.5" x1="162" y1="18" x2="162" y2="234"/>
<line fill="none" stroke="#8B5C29" stroke-width="1.5" x1="18" y1="90" x2="234" y2="90"/>
<line fill="none" stroke="#8B5C29" stroke-width="1.5" x1="18" y1="162" x2="234" y2="162"/>
<polyline fill="none" stroke="#003CFF" stroke-width="6" points="18,18 18,90 90,90 90,18 "/>
<polyline fill="none" stroke="#003CFF" stroke-width="6" points="90,90 234,90 234,162 90,162 90,234 234,234 "/>
<polyline fill="none" stroke="#003CFF" stroke-width="6" points="234,18 162,18 162,90 "/>
<polyline fill="none" stroke="#003CFF" stroke-width="6" points="90,234 18,234 18,162 "/>
<circle fill="#8F0000" stroke="#000000" stroke-width="2" cx="18" cy="18" r="9"/>
<circle fill="#8F0000" stroke="#000000" stroke-width="2" cx="90" cy="18" r="9"/>
<circle fill="#8F0000" stroke="#000000" stroke-width="2" cx="162" cy="18" r="9"/>
<circle fill="#8F0000" stroke="#000000" stroke-width="2" cx="234" cy="18" r="9"/>
<circle fill="#8F0000" stroke="#000000" stroke-width="2" cx="18" cy="162" r="9"/>
<circle fill="#8F0000" stroke="#000000" stroke-width="2" cx="90" cy="162" r="9"/>
<circle fill="#8F0000" stroke="#000000" stroke-width="2" cx="162" cy="162" r="9"/>
<circle fill="#8F0000" stroke="#000000" stroke-width="2" cx="234" cy="162" r="9"/>
<circle fill="#8F0000" stroke="#000000" stroke-width="2" cx="18" cy="234" r="9"/>
<circle fill="#8F0000" stroke="#000000" stroke-width="2" cx="90" cy="234" r="9"/>
<circle fill="#8F0000" stroke="#000000" stroke-width="2" cx="162" cy="234" r="9"/>
<circle fill="#8F0000" stroke="#000000" stroke-width="2" cx="234" cy="234" r="9"/>
<circle fill="#8F0000" stroke="#000000" stroke-width="2" cx="18" cy="90" r="9"/>
<circle fill="#8F0000" stroke="#000000" stroke-width="2" cx="90" cy="90" r="9"/>
<circle fill="#8F0000" stroke="#000000" stroke-width="2" cx="162" cy="90" r="9"/>
<circle fill="#8F0000" stroke="#000000" stroke-width="2" cx="234" cy="90" r="9"/>
<rect fill="none" width="252" height="252"/>
</svg>
